<?xml version="1.0" standalone="no"?>
<!DOCTYPE svg PUBLIC "-//W3C//DTD SVG 20010904//EN"
 "http://www.w3.org/TR/2001/REC-SVG-20010904/DTD/svg10.dtd">
<svg version="1.0" xmlns="http://www.w3.org/2000/svg"
 width="50.000000pt" height="50.000000pt" viewBox="0 0 50.000000 50.000000"
 preserveAspectRatio="xMidYMid meet">

<g transform="translate(0.000000,50.000000) scale(0.100000,-0.100000)"
fill="#000000" stroke="none">
<path d="M326 464 c-9 -8 -16 -24 -16 -34 0 -43 54 -65 84 -34 31 30 9 84 -34
84 -10 0 -26 -7 -34 -16z m59 -34 c0 -18 -6 -26 -23 -28 -13 -2 -25 3 -28 12
-10 26 4 48 28 44 17 -2 23 -10 23 -28z"/>
<path d="M278 363 c-35 -42 -81 -117 -90 -149 -9 -33 -10 -34 -31 -19 -34 24
-44 19 -84 -41 -31 -46 -35 -58 -25 -72 7 -9 17 -27 22 -40 15 -35 54 -26 58
12 4 37 52 109 105 158 l39 37 -4 -47 c-3 -29 -17 -67 -37 -100 -56 -90 -18
-115 48 -32 l40 51 16 -26 c8 -14 22 -36 30 -50 17 -28 37 -32 54 -11 9 11 4
32 -24 94 -47 109 -47 119 6 81 59 -41 81 1 25 48 -18 15 -39 45 -45 66 -18
55 -72 76 -103 40z m72 -18 c10 -12 10 -28 0 -78 -11 -62 -11 -64 24 -140 19
-42 31 -79 26 -82 -5 -3 -26 25 -48 62 -63 109 -64 110 -56 158 8 58 -6 58
-43 0 -15 -25 -32 -45 -36 -45 -12 0 -8 7 38 78 42 64 69 78 95 47z m66 -106
c21 -23 23 -29 9 -21 -25 13 -62 52 -48 52 5 0 22 -14 39 -31z m-267 -63 c10
-12 7 -23 -15 -55 -25 -39 -56 -53 -69 -31 -7 11 51 100 64 100 5 0 14 -6 20
-14z m151 -33 c0 -8 -14 -34 -32 -57 -17 -22 -33 -43 -35 -45 -2 -2 -5 -2 -9
1 -3 3 9 27 25 54 17 26 31 54 31 62 0 7 5 10 10 7 6 -3 10 -13 10 -22z m-190
-93 c0 -5 -4 -10 -10 -10 -5 0 -10 5 -10 10 0 6 5 10 10 10 6 0 10 -4 10 -10z"/>
</g>
</svg>
