<?xml version="1.0" standalone="no"?>
<!DOCTYPE svg PUBLIC "-//W3C//DTD SVG 20010904//EN"
 "http://www.w3.org/TR/2001/REC-SVG-20010904/DTD/svg10.dtd">
<svg version="1.0" xmlns="http://www.w3.org/2000/svg"
 width="50.000000pt" height="50.000000pt" viewBox="0 0 50.000000 50.000000"
 preserveAspectRatio="xMidYMid meet">

<g transform="translate(0.000000,50.000000) scale(0.100000,-0.100000)"
fill="#000000" stroke="none">
<path d="M103 481 c-4 -14 -15 -21 -42 -23 l-36 -3 0 -215 0 -215 225 0 225 0
0 215 0 215 -36 3 c-27 2 -38 9 -42 23 -7 26 -47 25 -54 -1 -5 -18 -14 -20
-93 -20 -79 0 -88 2 -93 20 -7 26 -47 27 -54 1z m37 -31 c0 -16 -4 -30 -10
-30 -5 0 -10 14 -10 30 0 17 5 30 10 30 6 0 10 -13 10 -30z m240 0 c0 -16 -4
-30 -10 -30 -5 0 -10 14 -10 30 0 17 5 30 10 30 6 0 10 -13 10 -30z m-277 -30
c3 -12 14 -20 27 -20 13 0 24 8 27 20 5 18 14 20 93 20 79 0 88 -2 93 -20 3
-12 14 -20 27 -20 13 0 24 8 27 20 4 14 14 20 34 20 26 0 29 -3 29 -35 l0 -35
-210 0 -210 0 0 35 c0 32 3 35 29 35 20 0 30 -6 34 -20z m357 -225 l0 -155
-210 0 -210 0 0 155 0 155 210 0 210 0 0 -155z"/>
<path d="M71 246 c-16 -19 -7 -34 27 -47 19 -7 22 -13 14 -21 -8 -8 -15 -8
-27 2 -17 14 -31 8 -20 -9 10 -17 51 -13 66 5 12 15 11 18 -4 28 -10 6 -26 17
-35 24 -15 12 -13 13 11 7 21 -4 28 -2 25 7 -7 19 -43 21 -57 4z"/>
<path d="M241 210 c-13 -62 -14 -73 -2 -66 5 3 12 23 15 43 4 21 9 46 12 56 3
9 1 17 -4 17 -6 0 -15 -23 -21 -50z"/>
<path d="M291 246 c-16 -19 -7 -34 27 -47 19 -7 22 -13 14 -21 -8 -8 -15 -8
-27 2 -17 14 -31 8 -20 -9 10 -17 51 -13 66 5 12 15 11 18 -4 28 -10 6 -26 17
-35 24 -15 12 -13 13 11 7 21 -4 28 -2 25 7 -7 19 -43 21 -57 4z"/>
<path d="M159 224 c-12 -15 -11 -16 9 -10 13 5 22 3 22 -3 0 -6 -9 -11 -21
-11 -32 0 -20 -34 14 -38 25 -3 27 -1 27 31 0 23 -6 37 -16 41 -21 8 -20 8
-35 -10z m31 -38 c0 -3 -4 -8 -10 -11 -5 -3 -10 -1 -10 4 0 6 5 11 10 11 6 0
10 -2 10 -4z"/>
<path d="M372 198 c3 -29 7 -33 36 -36 31 -3 32 -2 32 32 0 20 -4 36 -10 36
-5 0 -10 -11 -10 -25 0 -16 -6 -25 -15 -25 -9 0 -15 9 -15 25 0 14 -5 25 -11
25 -6 0 -9 -14 -7 -32z"/>
</g>
</svg>
