<?xml version="1.0" standalone="no"?>
<!DOCTYPE svg PUBLIC "-//W3C//DTD SVG 20010904//EN"
 "http://www.w3.org/TR/2001/REC-SVG-20010904/DTD/svg10.dtd">
<svg version="1.0" xmlns="http://www.w3.org/2000/svg"
 width="50.000000pt" height="50.000000pt" viewBox="0 0 50.000000 50.000000"
 preserveAspectRatio="xMidYMid meet">

<g transform="translate(0.000000,50.000000) scale(0.100000,-0.100000)"
fill="#000000" stroke="none">
<path d="M129 459 c-20 -20 -21 -30 -8 -79 3 -10 -5 -16 -26 -18 -60 -7 -93
-64 -61 -107 12 -17 11 -23 -10 -48 -16 -20 -24 -41 -24 -68 0 -34 4 -41 28
-50 15 -6 51 -9 80 -7 49 4 52 3 52 -19 0 -28 32 -43 90 -43 58 0 90 15 90 43
0 22 3 23 53 19 28 -2 64 1 80 7 23 9 27 16 27 50 0 27 -8 48 -24 68 -21 25
-22 31 -10 48 33 45 -4 105 -65 105 -28 0 -32 3 -26 18 17 40 16 61 -4 81 -26
26 -62 27 -84 3 -19 -20 -22 -62 -8 -77 6 -6 2 -19 -10 -34 l-19 -23 -19 23
c-13 17 -16 29 -10 41 14 26 11 46 -11 68 -26 26 -55 25 -81 -1z m71 -14 c15
-18 10 -45 -12 -59 -35 -22 -74 27 -48 59 16 19 44 19 60 0z m160 -5 c22 -40
-26 -80 -58 -48 -25 25 -6 68 30 68 9 0 22 -9 28 -20z m-150 -100 c26 -26 25
-38 -5 -62 -28 -22 -32 -54 -10 -85 13 -18 13 -22 0 -33 -12 -10 -15 -9 -15 3
0 9 -11 28 -24 43 -22 26 -22 29 -7 56 15 26 15 30 -1 57 -12 22 -13 31 -5 35
25 10 48 5 67 -14z m144 11 c3 -4 0 -22 -6 -39 -9 -24 -9 -34 4 -54 15 -22 14
-25 -8 -51 -13 -16 -24 -35 -24 -44 0 -12 -3 -13 -15 -3 -13 11 -13 15 0 33
22 31 18 60 -10 87 -29 28 -31 37 -8 62 17 19 58 25 67 9z m-232 -28 c22 -20
23 -46 2 -67 -20 -20 -48 -20 -68 0 -20 20 -20 48 0 68 20 21 43 20 66 -1z
m322 1 c31 -30 9 -84 -34 -84 -24 0 -50 26 -50 50 0 24 26 50 50 50 10 0 26
-7 34 -16z m-160 -60 c31 -30 9 -84 -34 -84 -24 0 -50 26 -50 50 0 10 7 26 16
34 8 9 24 16 34 16 10 0 26 -7 34 -16z m-147 -66 c27 -26 32 -82 7 -92 -20 -8
-88 -8 -108 0 -24 9 -20 63 6 91 27 29 65 29 95 1z m320 0 c27 -26 32 -82 7
-92 -20 -8 -88 -8 -108 0 -24 9 -20 63 6 91 27 29 65 29 95 1z m-160 -60 c27
-26 32 -82 7 -92 -20 -8 -88 -8 -108 0 -24 9 -20 63 6 91 27 29 65 29 95 1z"/>
</g>
</svg>
