<?xml version="1.0" standalone="no"?>
<!DOCTYPE svg PUBLIC "-//W3C//DTD SVG 20010904//EN"
 "http://www.w3.org/TR/2001/REC-SVG-20010904/DTD/svg10.dtd">
<svg version="1.0" xmlns="http://www.w3.org/2000/svg"
 width="64.000000pt" height="64.000000pt" viewBox="0 0 64.000000 64.000000"
 preserveAspectRatio="xMidYMid meet">

<g transform="translate(0.000000,64.000000) scale(0.100000,-0.100000)"
fill="#000000" stroke="none">
<path d="M189 593 c-11 -15 -11 -16 1 -5 21 18 65 15 85 -8 l18 -20 14 20 c16
22 62 27 81 8 16 -16 15 -63 -2 -96 -8 -15 -32 -44 -54 -65 l-40 -39 -41 38
c-48 43 -62 65 -72 114 l-7 35 -1 -31 c-2 -61 92 -164 150 -164 53 0 149 107
149 165 0 56 -21 65 -152 65 -98 0 -118 -3 -129 -17z m253 -10 c10 -9 18 -26
18 -38 0 -27 -42 -91 -84 -127 -52 -46 -61 -31 -12 23 49 54 65 103 47 138
-15 26 4 29 31 4z"/>
<path d="M30 437 l0 -83 76 -74 c72 -72 115 -130 95 -130 -14 0 -23 -32 -12
-43 7 -7 19 -6 36 3 14 7 28 10 31 7 11 -11 -18 -38 -35 -32 -11 4 -10 1 4
-15 21 -23 26 -25 19 -7 -6 16 23 44 33 33 4 -4 2 -16 -5 -26 -7 -11 -8 -20
-3 -20 6 0 13 5 16 10 8 13 25 13 25 0 0 -6 -10 -15 -22 -20 -19 -7 -15 -8 17
-6 53 3 110 32 136 68 19 27 20 31 5 47 -12 13 -13 20 -4 29 7 7 18 12 25 12
6 0 -10 21 -37 46 -28 26 -50 53 -50 60 0 7 48 58 108 113 l107 101 3 -96 3
-96 -57 -66 -56 -67 61 63 61 63 0 104 c0 63 -4 105 -10 105 -15 0 -230 -211
-230 -226 0 -7 -12 -15 -27 -17 -22 -3 -21 -4 4 -3 26 2 41 -6 69 -35 34 -35
38 -59 10 -59 -7 0 -25 13 -41 30 -34 35 -48 37 -83 10 -35 -28 -54 -9 -23 24
19 21 20 24 6 30 -24 9 -32 7 -15 -4 12 -7 11 -12 -5 -30 -17 -18 -17 -22 -4
-36 14 -13 18 -12 41 6 15 11 32 20 38 20 19 0 115 -103 101 -108 -7 -2 -23 6
-37 19 -30 28 -32 14 -2 -18 30 -32 14 -41 -25 -13 l-32 23 24 -26 c31 -34 18
-57 -15 -26 -13 12 -24 17 -24 11 0 -6 5 -14 10 -17 13 -8 13 -25 1 -25 -6 0
-37 28 -69 63 -33 34 -98 103 -146 153 l-87 91 3 76 3 77 99 -115 c54 -63 100
-115 103 -115 6 0 -19 31 -117 143 -46 53 -88 97 -92 97 -4 0 -8 -37 -8 -83z
m200 -296 c0 -13 -29 -35 -37 -28 -7 8 15 37 28 37 5 0 9 -4 9 -9z"/>
</g>
</svg>
