<?xml version="1.0" standalone="no"?>
<!DOCTYPE svg PUBLIC "-//W3C//DTD SVG 20010904//EN"
 "http://www.w3.org/TR/2001/REC-SVG-20010904/DTD/svg10.dtd">
<svg version="1.0" xmlns="http://www.w3.org/2000/svg"
 width="66.000000pt" height="66.000000pt" viewBox="0 0 66.000000 66.000000"
 preserveAspectRatio="xMidYMid meet">

<g transform="translate(0.000000,66.000000) scale(0.100000,-0.100000)"
fill="#000000" stroke="none">
<path d="M355 595 c-5 -2 -22 -6 -38 -9 -28 -7 -107 -71 -107 -87 0 -5 11 -9
23 -9 13 0 27 -3 31 -7 4 -5 24 -9 44 -10 61 -2 146 -15 157 -23 14 -10 85 0
85 12 0 43 -70 109 -135 127 -42 11 -44 12 -60 6z"/>
<path d="M212 449 c-33 -13 -22 -33 18 -37 20 -2 40 -12 48 -24 12 -16 16 -17
23 -7 16 25 9 44 -20 62 -33 19 -37 19 -69 6z"/>
<path d="M359 417 c-1 -1 -3 -42 -4 -92 -1 -49 0 -82 3 -72 2 9 10 17 17 17
18 0 30 21 17 29 -13 8 -32 56 -32 82 0 19 0 19 22 -1 12 -11 32 -20 45 -20
21 0 23 -3 17 -39 -6 -36 -4 -40 22 -53 26 -12 29 -19 28 -56 -1 -39 1 -42 15
-28 13 14 13 22 2 58 -6 24 -18 67 -26 97 -8 30 -17 57 -22 62 -7 6 -100 20
-104 16z"/>
<path d="M153 265 c-29 -29 -33 -38 -23 -50 7 -8 19 -15 26 -15 8 0 14 -5 14
-11 0 -6 11 -8 28 -5 68 14 92 16 92 6 0 -23 30 -8 35 18 4 15 8 36 10 46 2
11 -1 26 -7 33 -12 15 -54 17 -63 3 -3 -5 -15 -10 -26 -10 -10 0 -19 5 -19 10
0 21 -33 9 -67 -25z"/>
<path d="M197 143 c-27 -4 -28 -7 -25 -54 l3 -49 78 0 77 0 0 43 c0 36 -4 44
-27 55 -27 12 -51 13 -106 5z"/>
<path d="M350 60 c0 -18 7 -20 64 -20 59 0 64 2 59 20 -5 17 -14 20 -64 20
-52 0 -59 -2 -59 -20z"/>
</g>
</svg>
