<?xml version="1.0" standalone="no"?>
<!DOCTYPE svg PUBLIC "-//W3C//DTD SVG 20010904//EN"
 "http://www.w3.org/TR/2001/REC-SVG-20010904/DTD/svg10.dtd">
<svg version="1.0" xmlns="http://www.w3.org/2000/svg"
 width="64.000000pt" height="64.000000pt" viewBox="0 0 64.000000 64.000000"
 preserveAspectRatio="xMidYMid meet">

<g transform="translate(0.000000,64.000000) scale(0.100000,-0.100000)"
fill="#000000" stroke="none">
<path d="M218 507 l-98 -62 0 -192 0 -193 55 0 c30 0 64 5 75 12 15 10 22 9
38 -5 23 -21 46 -22 62 -2 14 17 50 20 50 5 0 -6 27 -10 60 -10 l60 0 0 194 0
193 -88 56 c-49 31 -95 58 -103 61 -8 3 -58 -23 -111 -57z m112 -17 c0 -5 7
-10 16 -10 8 0 29 -13 45 -29 23 -23 29 -38 29 -71 0 -91 -106 -135 -171 -71
-16 16 -29 37 -29 45 0 9 -4 16 -10 16 -32 0 6 92 48 114 31 17 72 21 72 6z
m30 -316 c0 -9 5 -12 11 -8 18 10 1 -48 -17 -62 -7 -6 -14 -19 -14 -28 0 -9
-8 -16 -20 -16 -12 0 -20 7 -20 16 0 9 -7 22 -14 28 -18 14 -35 72 -17 62 6
-4 11 -1 11 8 0 12 10 16 40 16 30 0 40 -4 40 -16z"/>
<path d="M327 402 c-18 -19 -25 -35 -21 -46 6 -15 11 -13 40 15 35 34 44 59
21 59 -7 0 -25 -13 -40 -28z"/>
</g>
</svg>
