<?xml version="1.0" standalone="no"?>
<!DOCTYPE svg PUBLIC "-//W3C//DTD SVG 20010904//EN"
 "http://www.w3.org/TR/2001/REC-SVG-20010904/DTD/svg10.dtd">
<svg version="1.0" xmlns="http://www.w3.org/2000/svg"
 width="80.000000pt" height="80.000000pt" viewBox="0 0 80.000000 80.000000"
 preserveAspectRatio="xMidYMid meet">

<g transform="translate(0.000000,80.000000) scale(0.100000,-0.100000)"
fill="#000000" stroke="none">
<path d="M212 697 c-28 -30 -28 -68 1 -95 30 -28 68 -28 95 1 28 30 28 68 -1
95 -30 28 -68 28 -95 -1z m82 -13 c31 -30 9 -84 -34 -84 -24 0 -50 26 -50 50
0 24 26 50 50 50 10 0 26 -7 34 -16z"/>
<path d="M490 680 c-11 -11 -20 -29 -20 -40 0 -11 9 -29 20 -40 11 -11 29 -20
40 -20 26 0 60 34 60 60 0 11 -9 29 -20 40 -11 11 -29 20 -40 20 -11 0 -29 -9
-40 -20z m70 -15 c26 -32 -13 -81 -47 -59 -35 22 -23 74 17 74 10 0 23 -7 30
-15z"/>
<path d="M145 536 c-25 -25 -26 -30 -23 -133 3 -101 4 -109 26 -118 20 -9 22
-16 22 -87 0 -96 8 -106 85 -103 65 2 75 11 75 73 0 63 19 51 22 -15 l3 -58
45 0 45 0 6 60 6 60 1 -51 c1 -28 8 -56 15 -62 16 -13 98 -13 115 0 7 7 12 36
12 79 l0 69 31 0 c27 0 31 3 26 21 -4 15 1 27 16 39 l21 18 -37 98 c-49 129
-56 136 -131 132 -83 -4 -83 -23 0 -23 l66 0 39 -95 c46 -115 47 -124 14 -116
-28 7 -29 7 -15 -28 l10 -26 -75 0 -75 0 0 43 c0 57 -30 87 -86 87 -44 0 -94
-19 -93 -35 1 -5 1 -63 0 -128 -1 -99 -4 -119 -17 -124 -11 -4 -22 1 -30 12
-14 18 -14 18 -28 0 -8 -11 -19 -16 -30 -12 -13 5 -16 22 -16 96 0 85 -1 90
-22 93 -22 3 -23 8 -26 100 -2 88 -1 99 19 119 19 19 30 21 100 17 50 -2 78 1
76 7 -2 5 -40 11 -85 13 -76 3 -84 1 -107 -22z m309 -172 c11 -10 16 -34 16
-75 0 -52 -2 -59 -20 -59 -18 0 -20 -7 -20 -60 l0 -60 -30 0 -30 0 0 60 c0 53
-2 60 -20 60 -18 0 -20 7 -20 59 0 41 5 65 16 75 20 21 88 21 108 0z m126
-179 c0 -68 -14 -91 -37 -60 -13 18 -13 18 -26 0 -20 -27 -37 -10 -37 38 0 75
6 84 56 85 l44 0 0 -63z"/>
<path d="M350 300 c0 -5 5 -10 10 -10 6 0 10 5 10 10 0 6 -4 10 -10 10 -5 0
-10 -4 -10 -10z"/>
<path d="M430 300 c0 -5 5 -10 10 -10 6 0 10 5 10 10 0 6 -4 10 -10 10 -5 0
-10 -4 -10 -10z"/>
<path d="M350 260 c0 -5 5 -10 10 -10 6 0 10 5 10 10 0 6 -4 10 -10 10 -5 0
-10 -4 -10 -10z"/>
<path d="M430 260 c0 -5 5 -10 10 -10 6 0 10 5 10 10 0 6 -4 10 -10 10 -5 0
-10 -4 -10 -10z"/>
<path d="M520 210 c0 -5 5 -10 10 -10 6 0 10 5 10 10 0 6 -4 10 -10 10 -5 0
-10 -4 -10 -10z"/>
<path d="M520 170 c0 -5 5 -10 10 -10 6 0 10 5 10 10 0 6 -4 10 -10 10 -5 0
-10 -4 -10 -10z"/>
<path d="M360 520 c-11 -11 -20 -29 -20 -40 0 -11 9 -29 20 -40 11 -11 29 -20
40 -20 26 0 60 34 60 60 0 11 -9 29 -20 40 -11 11 -29 20 -40 20 -11 0 -29 -9
-40 -20z m70 -15 c26 -32 -13 -81 -47 -59 -23 14 -28 41 -13 59 16 19 44 19
60 0z"/>
<path d="M170 450 c0 -5 5 -10 10 -10 6 0 10 5 10 10 0 6 -4 10 -10 10 -5 0
-10 -4 -10 -10z"/>
<path d="M310 450 c0 -5 5 -10 10 -10 6 0 10 5 10 10 0 6 -4 10 -10 10 -5 0
-10 -4 -10 -10z"/>
<path d="M580 439 c0 -5 5 -7 10 -4 6 3 10 8 10 11 0 2 -4 4 -10 4 -5 0 -10
-5 -10 -11z"/>
<path d="M170 410 c0 -5 5 -10 10 -10 6 0 10 5 10 10 0 6 -4 10 -10 10 -5 0
-10 -4 -10 -10z"/>
<path d="M310 410 c0 -5 5 -10 10 -10 6 0 10 5 10 10 0 6 -4 10 -10 10 -5 0
-10 -4 -10 -10z"/>
<path d="M595 400 c3 -5 8 -10 11 -10 2 0 4 5 4 10 0 6 -5 10 -11 10 -5 0 -7
-4 -4 -10z"/>
<path d="M170 370 c0 -5 5 -10 10 -10 6 0 10 5 10 10 0 6 -4 10 -10 10 -5 0
-10 -4 -10 -10z"/>
<path d="M170 330 c0 -5 5 -10 10 -10 6 0 10 5 10 10 0 6 -4 10 -10 10 -5 0
-10 -4 -10 -10z"/>
<path d="M240 300 c0 -5 5 -10 10 -10 6 0 10 5 10 10 0 6 -4 10 -10 10 -5 0
-10 -4 -10 -10z"/>
<path d="M240 260 c0 -5 5 -10 10 -10 6 0 10 5 10 10 0 6 -4 10 -10 10 -5 0
-10 -4 -10 -10z"/>
<path d="M240 220 c0 -5 5 -10 10 -10 6 0 10 5 10 10 0 6 -4 10 -10 10 -5 0
-10 -4 -10 -10z"/>
<path d="M240 180 c0 -5 5 -10 10 -10 6 0 10 5 10 10 0 6 -4 10 -10 10 -5 0
-10 -4 -10 -10z"/>
</g>
</svg>
