<?xml version="1.0" standalone="no"?>
<!DOCTYPE svg PUBLIC "-//W3C//DTD SVG 20010904//EN"
 "http://www.w3.org/TR/2001/REC-SVG-20010904/DTD/svg10.dtd">
<svg version="1.0" xmlns="http://www.w3.org/2000/svg"
 width="50.000000pt" height="50.000000pt" viewBox="0 0 50.000000 50.000000"
 preserveAspectRatio="xMidYMid meet">

<g transform="translate(0.000000,50.000000) scale(0.100000,-0.100000)"
fill="#000000" stroke="none">
<path d="M215 465 c-14 -13 -25 -29 -25 -35 0 -5 -15 -10 -34 -10 -39 0 -66
-28 -66 -67 0 -26 12 -30 30 -8 18 21 29 19 23 -5 -7 -26 4 -70 18 -70 5 0 22
12 36 26 31 31 45 19 41 -36 -3 -32 -7 -36 -47 -49 -27 -8 -63 -33 -93 -62
-32 -31 -59 -49 -74 -49 -13 0 -24 -4 -24 -10 0 -12 50 -13 69 -1 7 5 25 4 42
-2 20 -8 37 -8 57 -1 18 7 36 7 55 0 18 -7 37 -7 55 0 18 7 36 7 55 0 18 -7
37 -7 55 0 17 6 36 7 53 0 15 -5 35 -5 45 -1 16 7 14 9 -15 15 -19 5 -44 22
-61 42 -15 18 -44 42 -64 53 -30 17 -36 25 -36 54 0 18 -9 49 -21 67 l-21 34
46 0 c25 0 46 4 46 9 0 18 -41 59 -65 65 -31 8 -24 26 11 26 29 0 31 15 5 30
-33 17 -71 11 -96 -15z m40 -20 c-34 -33 -31 -41 10 -41 21 0 42 -7 53 -18 16
-18 15 -18 -45 -12 -56 5 -63 4 -63 -12 0 -22 -27 -62 -42 -62 -10 0 -7 29 7
63 6 14 2 17 -25 17 -20 0 -29 4 -24 11 4 7 22 9 45 6 32 -4 39 -2 39 12 0 26
29 61 50 61 17 0 17 -2 -5 -25z m15 -137 c24 -40 27 -88 5 -88 -10 0 -15 10
-15 34 0 19 -4 46 -10 60 -13 36 -4 32 20 -6z m55 -127 c46 -21 80 -55 70 -70
-8 -14 -58 -14 -71 -1 -6 6 -21 6 -42 -2 -25 -10 -39 -10 -64 0 -21 8 -36 8
-42 2 -13 -13 -63 -13 -71 1 -18 28 82 89 145 89 19 0 53 -9 75 -19z"/>
<path d="M60 70 c-8 -5 -25 -10 -37 -10 -13 0 -23 -4 -23 -10 0 -12 50 -13 69
-1 7 5 25 4 42 -2 19 -8 37 -8 56 -1 19 7 37 7 56 0 18 -7 36 -7 55 0 18 7 36
7 55 0 18 -7 37 -7 55 0 17 6 36 7 53 0 15 -5 35 -5 45 -1 16 7 13 9 -16 17
-41 11 -53 11 -98 2 -18 -4 -38 -2 -45 5 -10 8 -22 7 -45 -1 -25 -10 -39 -10
-64 0 -23 8 -35 9 -45 1 -12 -11 -52 -9 -83 4 -8 4 -22 2 -30 -3z"/>
</g>
</svg>
