<?xml version="1.0" encoding="UTF-8"?>
<!DOCTYPE svg PUBLIC "-//W3C//DTD SVG 1.1//EN" "http://www.w3.org/Graphics/SVG/1.1/DTD/svg11.dtd">
<svg xmlns="http://www.w3.org/2000/svg" version="1.1" width="50px" height="50px" style="shape-rendering:geometricPrecision; text-rendering:geometricPrecision; image-rendering:optimizeQuality; fill-rule:evenodd; clip-rule:evenodd" xmlns:xlink="http://www.w3.org/1999/xlink">
<g><path style="opacity:0.651" fill="#000000" d="M 40.5,49.5 C 29.8333,49.5 19.1667,49.5 8.5,49.5C 6.83247,47.5214 6.1658,45.188 6.5,42.5C 2.77468,42.2204 1.60802,40.2204 3,36.5C 8.01991,33.1257 11.0199,28.459 12,22.5C 13.9522,20.1064 16.4522,18.6064 19.5,18C 17.0091,7.82595 20.5091,4.99262 30,9.5C 30.7772,12.4294 30.6105,15.2628 29.5,18C 35.8542,19.6932 39.3542,23.8599 40,30.5C 42,32.5 44,34.5 46,36.5C 47.392,40.2204 46.2253,42.2204 42.5,42.5C 42.8342,45.188 42.1675,47.5214 40.5,49.5 Z M 22.5,10.5 C 27.1585,10.0146 28.4919,11.848 26.5,16C 21.7282,16.8104 20.3948,14.9771 22.5,10.5 Z M 40.5,36.5 C 39.7611,36.631 39.0944,36.4643 38.5,36C 36.2756,33.035 33.9422,30.2016 31.5,27.5C 30.2354,31.5461 30.2354,35.5461 31.5,39.5C 26.7842,40.0083 22.1176,40.8416 17.5,42C 15.8446,43.4443 15.178,45.2776 15.5,47.5C 13.3043,47.4348 11.3043,46.7681 9.5,45.5C 11.8333,42.5801 14.6666,40.2468 18,38.5C 18.4986,34.8484 18.6653,31.1817 18.5,27.5C 15.5657,28.2894 13.7324,30.2894 13,33.5C 11.871,35.1412 10.371,36.1412 8.5,36.5C 11.7618,32.757 14.0951,28.4237 15.5,23.5C 26.4986,17.8785 33.6653,20.8785 37,32.5C 38.3756,33.7051 39.5423,35.0384 40.5,36.5 Z M 7.5,37.5 C 7.21719,38.2891 6.71719,38.9558 6,39.5C 5.47189,38.184 5.97189,37.5173 7.5,37.5 Z M 41.5,37.5 C 43.0281,37.5173 43.5281,38.184 43,39.5C 42.2828,38.9558 41.7828,38.2891 41.5,37.5 Z M 31.5,39.5 C 42.5508,45.1901 41.5508,47.8568 28.5,47.5C 25.2834,47.653 22.2834,46.9864 19.5,45.5C 23.2926,43.7407 27.2926,42.7407 31.5,42.5C 31.5,41.5 31.5,40.5 31.5,39.5 Z"/></g>
</svg>
