<?xml version="1.0" standalone="no"?>
<!DOCTYPE svg PUBLIC "-//W3C//DTD SVG 20010904//EN"
 "http://www.w3.org/TR/2001/REC-SVG-20010904/DTD/svg10.dtd">
<svg version="1.0" xmlns="http://www.w3.org/2000/svg"
 width="64.000000pt" height="64.000000pt" viewBox="0 0 64.000000 64.000000"
 preserveAspectRatio="xMidYMid meet">

<g transform="translate(0.000000,64.000000) scale(0.100000,-0.100000)"
fill="#000000" stroke="none">
<path d="M414 594 c11 -42 35 -71 69 -85 32 -13 47 -26 47 -42 0 -5 -7 -1 -16
7 -15 15 -44 22 -44 10 0 -3 5 -14 11 -26 9 -16 7 -24 -12 -44 -22 -24 -26
-24 -194 -24 -166 0 -172 -1 -193 -23 -27 -29 -28 -41 -2 -34 17 4 20 0 22
-26 4 -74 -2 -91 -42 -125 -39 -33 -40 -35 -40 -98 0 -49 4 -66 16 -71 19 -7
41 11 25 21 -6 4 -11 25 -11 46 0 29 5 42 19 50 11 5 22 10 24 10 2 0 16 -29
32 -65 19 -46 33 -65 46 -65 25 0 32 15 12 31 -9 8 -22 27 -29 44 -11 26 -10
32 12 58 13 16 27 39 30 53 6 22 11 24 64 24 l58 0 -3 -57 c-2 -32 -6 -66 -10
-76 -9 -21 13 -77 30 -77 22 0 25 13 9 32 -16 16 -15 23 11 93 l27 75 39 -31
c37 -29 39 -34 39 -86 0 -79 24 -66 28 15 3 53 -1 67 -22 95 l-25 33 38 36
c22 20 44 52 51 72 10 30 16 35 48 38 48 4 55 31 13 53 -29 15 -44 55 -21 55
13 0 50 37 50 50 0 17 -22 11 -47 -12 -28 -26 -43 -16 -18 12 22 25 12 39 -16
21 -19 -11 -20 -10 -14 8 9 28 -12 27 -36 -1 l-20 -23 7 34 c6 31 4 33 -15 28
-11 -3 -21 -1 -21 4 0 5 -7 9 -16 9 -12 0 -15 -6 -10 -26z m40 -9 c3 10 9 15
12 12 3 -3 1 -14 -5 -26 -17 -31 6 -37 37 -10 l26 24 -17 -27 c-15 -23 -15
-28 -3 -28 8 0 21 7 30 15 25 25 31 17 6 -10 -21 -22 -21 -25 -6 -31 11 -4 30
2 49 15 l32 22 -32 -29 c-18 -15 -33 -35 -34 -43 0 -8 -4 -4 -9 9 -6 13 -24
29 -43 37 -39 16 -62 41 -71 75 l-7 25 14 -24 c12 -21 15 -21 21 -6z m51 -116
c11 -17 -1 -21 -15 -4 -8 9 -8 15 -2 15 6 0 14 -5 17 -11z m70 -35 c35 -23 32
-44 -6 -44 -25 0 -32 -6 -44 -34 -17 -39 -62 -96 -77 -96 -6 0 -4 8 5 18 10
10 17 25 17 33 0 8 -9 -1 -20 -19 -26 -42 -25 -51 5 -92 20 -28 25 -44 23 -89
l-2 -56 -4 50 c-4 47 -7 53 -63 98 l-59 48 15 36 c9 20 14 38 11 40 -2 2 -11
-15 -20 -37 l-16 -41 -65 3 c-60 2 -64 4 -68 28 -3 18 -4 15 -6 -12 -2 -49
-17 -87 -48 -119 l-25 -27 21 -48 c12 -26 19 -49 17 -52 -6 -5 -56 104 -56
121 0 6 7 18 16 28 13 14 14 23 5 46 l-11 28 5 -28 c4 -21 -1 -33 -21 -52 -14
-13 -35 -27 -46 -31 -18 -5 -20 -13 -16 -60 3 -30 1 -54 -4 -54 -4 0 -8 29 -8
64 0 64 1 65 39 93 43 30 54 59 44 116 -3 19 0 44 6 55 10 18 9 21 -4 16 -8
-3 -13 -9 -11 -13 3 -4 -4 -7 -14 -7 -18 0 -18 2 -3 18 9 10 26 17 37 17 12
-1 89 -1 172 -1 l151 2 36 35 c40 39 56 42 92 19z m-258 -201 c-20 -2 -52 -2
-70 0 -17 2 0 4 38 4 39 0 53 -2 32 -4z m53 -20 c0 -16 -53 -153 -57 -149 -3
3 0 21 7 40 6 20 9 40 5 46 -13 20 6 70 26 70 10 0 19 -3 19 -7z"/>
</g>
</svg>
