<?xml version="1.0" encoding="UTF-8"?>
<!DOCTYPE svg PUBLIC "-//W3C//DTD SVG 1.1//EN" "http://www.w3.org/Graphics/SVG/1.1/DTD/svg11.dtd">
<svg xmlns="http://www.w3.org/2000/svg" version="1.1" width="512px" height="512px" style="shape-rendering:geometricPrecision; text-rendering:geometricPrecision; image-rendering:optimizeQuality; fill-rule:evenodd; clip-rule:evenodd" xmlns:xlink="http://www.w3.org/1999/xlink">
<g><path style="opacity:0.962" fill="#000000" d="M 239.5,-0.5 C 250.167,-0.5 260.833,-0.5 271.5,-0.5C 321.279,7.97907 356.445,35.3124 377,81.5C 380.922,91.8534 383.588,102.52 385,113.5C 385.167,185.169 385.667,256.836 386.5,328.5C 429.519,352.511 455.352,388.845 464,437.5C 465.562,454.798 465.895,472.132 465,489.5C 461.65,500.682 454.483,508.016 443.5,511.5C 318.167,511.5 192.833,511.5 67.5,511.5C 56.5167,508.016 49.3501,500.682 46,489.5C 39.0159,432.431 56.5159,384.597 98.5,346C 106.649,339.423 115.316,333.59 124.5,328.5C 125.333,256.836 125.833,185.169 126,113.5C 135.334,58.317 166.501,21.817 219.5,4C 226.276,2.37825 232.943,0.878249 239.5,-0.5 Z M 241.5,20.5 C 295.334,17.566 333.834,40.2327 357,88.5C 363.181,104.253 365.681,120.586 364.5,137.5C 338.253,132.76 320.253,117.927 310.5,93C 314.274,87.5552 318.44,82.3885 323,77.5C 327.229,70.4321 326.062,64.5988 319.5,60C 316.036,59.1834 312.702,59.5167 309.5,61C 268.041,113.393 213.707,139.56 146.5,139.5C 144.59,94.148 162.59,59.3146 200.5,35C 213.479,27.8427 227.146,23.0094 241.5,20.5 Z M 293.5,108.5 C 307.879,136.184 330.546,152.85 361.5,158.5C 352.405,201.889 330.738,237.389 296.5,265C 269.167,283 241.833,283 214.5,265C 180.885,237.826 159.218,202.993 149.5,160.5C 204.164,160.731 252.164,143.397 293.5,108.5 Z M 145.5,212.5 C 155.939,233.029 169.106,251.695 185,268.5C 185.5,282.829 185.667,297.163 185.5,311.5C 171.905,312.192 158.739,314.858 146,319.5C 145.5,283.835 145.333,248.168 145.5,212.5 Z M 364.5,212.5 C 365.664,247.998 365.831,283.664 365,319.5C 352.261,314.858 339.095,312.192 325.5,311.5C 325.333,297.163 325.5,282.829 326,268.5C 342.063,252.035 354.897,233.369 364.5,212.5 Z M 205.5,284.5 C 238.667,304.487 271.833,304.487 305,284.5C 306.119,303.926 305.286,323.259 302.5,342.5C 303.964,352.903 309.63,356.069 319.5,352C 321.041,350.421 322.208,348.587 323,346.5C 323.667,342.5 324.333,338.5 325,334.5C 325.674,333.422 326.674,332.755 328,332.5C 333.242,333.177 338.408,334.177 343.5,335.5C 344.213,389.93 332.547,441.596 308.5,490.5C 294.182,491.499 279.849,491.833 265.5,491.5C 265.666,486.489 265.499,481.489 265,476.5C 261.345,471.725 256.512,470.225 250.5,472C 248.667,473.167 247.167,474.667 246,476.5C 245.501,481.489 245.334,486.489 245.5,491.5C 230.921,491.824 216.421,491.49 202,490.5C 178.666,441.497 166.5,389.83 165.5,335.5C 171.297,334.362 177.13,333.362 183,332.5C 184.326,332.755 185.326,333.422 186,334.5C 186.667,338.5 187.333,342.5 188,346.5C 190.73,353.053 195.563,355.22 202.5,353C 206.823,350.894 208.823,347.394 208.5,342.5C 205.881,323.261 204.881,303.928 205.5,284.5 Z M 143.5,342.5 C 146.323,393.798 157.99,443.131 178.5,490.5C 155.176,491.5 131.843,491.833 108.5,491.5C 118.516,445.707 124.349,399.374 126,352.5C 131.815,349.013 137.648,345.68 143.5,342.5 Z M 365.5,342.5 C 372.306,345.154 378.806,348.487 385,352.5C 385.976,399.324 391.809,445.49 402.5,491C 378.833,491.667 355.167,491.667 331.5,491C 353.089,443.892 364.423,394.392 365.5,342.5 Z M 406.5,370.5 C 427.744,391.323 440.244,416.657 444,446.5C 444.611,454.827 445.111,463.16 445.5,471.5C 447.082,487.735 439.749,494.402 423.5,491.5C 414.752,451.596 409.085,411.263 406.5,370.5 Z M 102.5,371.5 C 101.704,411.525 96.5375,451.192 87,490.5C 80.8931,492.142 75.0597,491.475 69.5,488.5C 60.6934,444.077 71.6934,405.077 102.5,371.5 Z M 251.5,412.5 C 261.323,411.488 265.489,415.822 264,425.5C 258.333,432.167 252.667,432.167 247,425.5C 245.381,419.968 246.881,415.634 251.5,412.5 Z"/></g>
<g><path style="opacity:0.934" fill="#000000" d="M 231.5,213.5 C 237.844,213.498 243.844,214.998 249.5,218C 257.335,219.403 264.669,218.07 271.5,214C 282.498,212.667 286.998,217.5 285,228.5C 279.432,234.202 272.599,237.702 264.5,239C 252.433,241.036 241.1,239.036 230.5,233C 225.777,229.746 224.277,225.246 226,219.5C 227.36,216.977 229.193,214.977 231.5,213.5 Z"/></g>
<g><path style="opacity:0.89" fill="#000000" d="M 205.5,371.5 C 217.324,369.824 222.158,374.824 220,386.5C 216.345,391.275 211.512,392.775 205.5,391C 200.725,387.345 199.225,382.512 201,376.5C 202.366,374.638 203.866,372.972 205.5,371.5 Z"/></g>
<g><path style="opacity:0.89" fill="#000000" d="M 295.5,371.5 C 307.324,369.824 312.158,374.824 310,386.5C 306.345,391.275 301.512,392.775 295.5,391C 290.725,387.345 289.225,382.512 291,376.5C 292.366,374.638 293.866,372.972 295.5,371.5 Z"/></g>
<g><path style="opacity:0.946" fill="#000000" d="M 247.5,391.5 C 274.645,389.811 287.145,402.478 285,429.5C 278.491,446.844 265.991,454.011 247.5,451C 230.156,444.491 222.989,431.991 226,413.5C 229.35,402.318 236.517,394.984 247.5,391.5 Z M 251.5,412.5 C 246.881,415.634 245.381,419.968 247,425.5C 252.667,432.167 258.333,432.167 264,425.5C 265.489,415.822 261.323,411.488 251.5,412.5 Z"/></g>
</svg>
