<?xml version="1.0" encoding="UTF-8"?>
<!DOCTYPE svg PUBLIC "-//W3C//DTD SVG 1.1//EN" "http://www.w3.org/Graphics/SVG/1.1/DTD/svg11.dtd">
<svg xmlns="http://www.w3.org/2000/svg" version="1.1" width="512px" height="512px" style="shape-rendering:geometricPrecision; text-rendering:geometricPrecision; image-rendering:optimizeQuality; fill-rule:evenodd; clip-rule:evenodd" xmlns:xlink="http://www.w3.org/1999/xlink">
<g><path style="opacity:0.972" fill="#000001" d="M 213.5,-0.5 C 216.167,-0.5 218.833,-0.5 221.5,-0.5C 223.955,1.13988 225.455,3.47322 226,6.5C 226.333,15.1667 226.667,23.8333 227,32.5C 246.242,41.3086 254.242,56.3086 251,77.5C 249.394,82.3816 246.561,86.3816 242.5,89.5C 243.156,100.789 243.49,112.123 243.5,123.5C 243.616,136.212 243.116,148.878 242,161.5C 239.096,170.07 233.263,175.57 224.5,178C 210.885,179.406 197.218,179.906 183.5,179.5C 183.667,212.168 183.5,244.835 183,277.5C 181.622,282.208 178.788,285.708 174.5,288C 175.664,352.763 175.831,417.596 175,482.5C 173.72,497.088 166.22,506.755 152.5,511.5C 147.5,511.5 142.5,511.5 137.5,511.5C 132.32,509.905 127.654,507.238 123.5,503.5C 119.357,507.234 114.69,509.9 109.5,511.5C 104.5,511.5 99.5,511.5 94.5,511.5C 82.3375,507.498 74.8375,499.165 72,486.5C 71.6667,420.167 71.3333,353.833 71,287.5C 70.4387,286.978 69.772,286.645 69,286.5C 51.1301,294.1 38.1301,289.1 30,271.5C 29.3333,234.5 29.3333,197.5 30,160.5C 34.8333,143.667 45.6667,132.833 62.5,128C 77.2351,127.051 91.9018,127.384 106.5,129C 108.09,130.046 109.59,131.213 111,132.5C 114.936,138.053 119.103,143.387 123.5,148.5C 127.494,143.666 131.327,138.666 135,133.5C 137.441,131.031 140.274,129.198 143.5,128C 159.497,127.5 175.497,127.333 191.5,127.5C 191.667,114.496 191.5,101.496 191,88.5C 183.525,81.4026 180.858,72.7359 183,62.5C 185.882,48.124 194.048,38.124 207.5,32.5C 208.332,23.1845 208.832,13.8511 209,4.5C 210.025,2.31305 211.525,0.646381 213.5,-0.5 Z M 213.5,49.5 C 223.325,48.8227 229.825,53.1561 233,62.5C 233.793,66.423 233.626,70.2564 232.5,74C 223.242,75.5835 213.909,75.9168 204.5,75C 203.069,74.5348 201.903,73.7014 201,72.5C 199.449,61.595 203.616,53.9283 213.5,49.5 Z"/></g>
<g><path style="opacity:0.979" fill="#010001" d="M 443.5,-0.5 C 446.167,-0.5 448.833,-0.5 451.5,-0.5C 453.475,0.646381 454.975,2.31305 456,4.5C 456.168,13.8511 456.668,23.1845 457.5,32.5C 478.547,42.5957 486.047,58.9291 480,81.5C 478.374,84.1277 476.374,86.461 474,88.5C 473.667,112.167 473.333,135.833 473,159.5C 469.376,171.128 461.542,177.628 449.5,179C 437.505,179.5 425.505,179.667 413.5,179.5C 413.667,212.502 413.5,245.502 413,278.5C 411.431,282.072 409.098,285.072 406,287.5C 405.667,353.833 405.333,420.167 405,486.5C 402.176,499.152 394.676,507.486 382.5,511.5C 377.5,511.5 372.5,511.5 367.5,511.5C 362.387,510.021 357.887,507.354 354,503.5C 349.817,506.836 345.317,509.503 340.5,511.5C 335.167,511.5 329.833,511.5 324.5,511.5C 313.517,508.016 306.35,500.682 303,489.5C 302.667,422.167 302.333,354.833 302,287.5C 301.439,286.978 300.772,286.645 300,286.5C 286.266,292.879 274.266,290.545 264,279.5C 262.107,276.382 260.774,273.049 260,269.5C 259.038,232.467 259.372,195.467 261,158.5C 266.015,142.152 276.848,131.985 293.5,128C 307.902,127.052 322.235,127.385 336.5,129C 338.96,130.458 341.127,132.291 343,134.5C 346.308,139.308 349.808,143.975 353.5,148.5C 357.207,144.956 360.374,140.956 363,136.5C 365.921,132.908 369.421,130.075 373.5,128C 389.497,127.5 405.497,127.333 421.5,127.5C 421.667,114.496 421.5,101.496 421,88.5C 417.846,85.3479 415.513,81.6813 414,77.5C 410.391,56.1523 418.391,41.1523 438,32.5C 438.333,23.5 438.667,14.5 439,5.5C 439.804,2.85408 441.304,0.854084 443.5,-0.5 Z M 443.5,49.5 C 456.264,49.0959 463.264,55.2626 464.5,68C 464.561,70.2605 463.894,72.2605 462.5,74C 453.242,75.5835 443.909,75.9168 434.5,75C 433.584,74.6258 432.75,74.1258 432,73.5C 429.685,62.4658 433.518,54.4658 443.5,49.5 Z"/></g>
<g><path style="opacity:0.958" fill="#010101" d="M 114.5,24.5 C 145.912,25.0242 163.246,40.8575 166.5,72C 164.002,101.165 148.168,116.998 119,119.5C 89.8336,117 74.0003,101.167 71.5,72C 74.078,45.247 88.4113,29.4137 114.5,24.5 Z"/></g>
<g><path style="opacity:0.959" fill="#010100" d="M 345.5,24.5 C 381.271,26.7689 398.104,45.7689 396,81.5C 389.673,105.322 374.173,117.988 349.5,119.5C 320.53,116.698 304.864,100.864 302.5,72C 304.453,44.8837 318.786,29.0504 345.5,24.5 Z"/></g>
<g><path style="opacity:1" fill="#fddeb0" d="M 122.5,42.5 C 129.208,50.9405 132.208,60.6072 131.5,71.5C 131.631,82.3135 128.964,92.3135 123.5,101.5C 102.703,102.116 91.3701,92.1161 89.5,71.5C 90.5971,57.231 97.9304,47.731 111.5,43C 115.152,42.5014 118.818,42.3347 122.5,42.5 Z"/></g>
<g><path style="opacity:1" fill="#fcddb0" d="M 353.5,42.5 C 365.499,62.1721 365.499,81.8388 353.5,101.5C 333.322,101.82 321.988,91.9865 319.5,72C 322.015,51.9841 333.348,42.1507 353.5,42.5 Z"/></g>
<g><path style="opacity:1" fill="#bda684" d="M 122.5,42.5 C 141.657,46.8392 150.157,58.8392 148,78.5C 144.836,91.4976 136.669,99.1643 123.5,101.5C 128.964,92.3135 131.631,82.3135 131.5,71.5C 132.208,60.6072 129.208,50.9405 122.5,42.5 Z"/></g>
<g><path style="opacity:1" fill="#bca582" d="M 353.5,42.5 C 374.777,48.3818 382.611,62.0484 377,83.5C 372.473,93.8646 364.64,99.8646 353.5,101.5C 365.499,81.8388 365.499,62.1721 353.5,42.5 Z"/></g>
<g><path style="opacity:1" fill="#6639b5" d="M 217.5,93.5 C 217.667,114.836 217.5,136.169 217,157.5C 215.812,158.563 215.312,159.897 215.5,161.5C 201.496,161.333 187.496,161.5 173.5,162C 168.893,162.439 166.56,164.939 166.5,169.5C 163.609,170.403 160.609,170.736 157.5,170.5C 157.5,204.5 157.5,238.5 157.5,272.5C 131.833,272.5 106.167,272.5 80.5,272.5C 80.6667,237.165 80.5,201.832 80,166.5C 74.1155,159.514 68.7822,159.847 64,167.5C 63.6667,200.833 63.3333,234.167 63,267.5C 60.4126,272.068 56.5792,273.568 51.5,272C 49.1898,270.363 47.6898,268.196 47,265.5C 46.3333,231.833 46.3333,198.167 47,164.5C 50.1667,154.667 56.6667,148.167 66.5,145C 77.1823,144.168 87.8489,144.334 98.5,145.5C 104.667,153.833 110.833,162.167 117,170.5C 121.791,173.42 126.291,173.087 130.5,169.5C 136.307,161.193 142.307,153.026 148.5,145C 166.833,144.667 185.167,144.333 203.5,144C 205.726,142.773 207.226,140.939 208,138.5C 208.5,123.504 208.667,108.504 208.5,93.5C 211.5,93.5 214.5,93.5 217.5,93.5 Z"/></g>
<g><path style="opacity:1" fill="#44269f" d="M 217.5,93.5 C 220.167,93.5 222.833,93.5 225.5,93.5C 225.667,114.503 225.5,135.503 225,156.5C 223.055,160.39 219.888,162.057 215.5,161.5C 215.312,159.897 215.812,158.563 217,157.5C 217.5,136.169 217.667,114.836 217.5,93.5 Z"/></g>
<g><path style="opacity:1" fill="#a61353" d="M 437.5,161.5 C 439.651,153.808 439.984,146.141 438.5,138.5C 438.5,123.5 438.5,108.5 438.5,93.5C 444.5,93.5 450.5,93.5 456.5,93.5C 456.667,113.836 456.5,134.169 456,154.5C 455.31,157.196 453.81,159.363 451.5,161C 446.845,161.499 442.179,161.666 437.5,161.5 Z"/></g>
<g><path style="opacity:1" fill="#e61d61" d="M 438.5,138.5 C 439.984,146.141 439.651,153.808 437.5,161.5C 426.162,161.333 414.828,161.5 403.5,162C 399.108,163.219 396.774,166.052 396.5,170.5C 390.833,170.5 385.167,170.5 379.5,170.5C 379.5,204.5 379.5,238.5 379.5,272.5C 356.833,272.5 334.167,272.5 311.5,272.5C 311.667,237.832 311.5,203.165 311,168.5C 306.574,160.094 301.241,159.428 295,166.5C 294.667,199.5 294.333,232.5 294,265.5C 291.472,272.181 286.972,274.014 280.5,271C 278.959,269.421 277.792,267.587 277,265.5C 276.333,232.5 276.333,199.5 277,166.5C 279.289,155.543 285.789,148.376 296.5,145C 307.167,144.333 317.833,144.333 328.5,145C 335.5,154 342.5,163 349.5,172C 353.829,173.151 357.662,172.318 361,169.5C 366.589,161.323 372.422,153.323 378.5,145.5C 396.824,144.667 415.158,144.167 433.5,144C 436.056,142.945 437.723,141.112 438.5,138.5 Z"/></g>
<g><path style="opacity:1" fill="#412598" d="M 166.5,169.5 C 166.5,203.833 166.5,238.167 166.5,272.5C 163.5,272.5 160.5,272.5 157.5,272.5C 157.5,238.5 157.5,204.5 157.5,170.5C 160.609,170.736 163.609,170.403 166.5,169.5 Z"/></g>
<g><path style="opacity:1" fill="#ac1356" d="M 396.5,170.5 C 396.5,204.5 396.5,238.5 396.5,272.5C 390.833,272.5 385.167,272.5 379.5,272.5C 379.5,238.5 379.5,204.5 379.5,170.5C 385.167,170.5 390.833,170.5 396.5,170.5 Z"/></g>
<g><path style="opacity:1" fill="#2194f0" d="M 140.5,289.5 C 140.667,355.168 140.5,420.834 140,486.5C 139.243,488.315 138.41,489.981 137.5,491.5C 134.769,489.929 132.935,487.595 132,484.5C 131.667,438.167 131.333,391.833 131,345.5C 128.045,341.723 124.212,340.557 119.5,342C 117.185,343.109 115.685,344.943 115,347.5C 114.667,393.5 114.333,439.5 114,485.5C 109.731,494.386 103.231,496.552 94.5,492C 92.3834,490.269 90.8834,488.102 90,485.5C 89.5,420.168 89.3333,354.834 89.5,289.5C 106.5,289.5 123.5,289.5 140.5,289.5 Z"/></g>
<g><path style="opacity:1" fill="#1465bf" d="M 140.5,289.5 C 146.167,289.5 151.833,289.5 157.5,289.5C 157.667,354.834 157.5,420.168 157,485.5C 153.78,492.694 148.28,495.527 140.5,494C 139.058,493.623 138.058,492.79 137.5,491.5C 138.41,489.981 139.243,488.315 140,486.5C 140.5,420.834 140.667,355.168 140.5,289.5 Z"/></g>
<g><path style="opacity:1" fill="#1d82d3" d="M 370.5,289.5 C 370.5,289.833 370.5,290.167 370.5,290.5C 353.833,290.5 337.167,290.5 320.5,290.5C 320.5,355.5 320.5,420.5 320.5,485.5C 319.501,420.335 319.168,355.002 319.5,289.5C 336.5,289.5 353.5,289.5 370.5,289.5 Z"/></g>
<g><path style="opacity:1" fill="#2195f1" d="M 370.5,290.5 C 370.667,355.834 370.5,421.168 370,486.5C 369.901,488.653 369.067,490.319 367.5,491.5C 365.292,490.106 363.792,488.106 363,485.5C 362.667,439.167 362.333,392.833 362,346.5C 359.103,341.845 354.937,340.345 349.5,342C 348.333,343.167 347.167,344.333 346,345.5C 345.667,391.833 345.333,438.167 345,484.5C 340.288,494.737 333.122,496.904 323.5,491C 322.242,489.259 321.242,487.426 320.5,485.5C 320.5,420.5 320.5,355.5 320.5,290.5C 337.167,290.5 353.833,290.5 370.5,290.5 Z"/></g>
<g><path style="opacity:1" fill="#1566c0" d="M 370.5,289.5 C 376.167,289.5 381.833,289.5 387.5,289.5C 387.667,355.168 387.5,420.834 387,486.5C 382.027,494.841 375.527,496.508 367.5,491.5C 369.067,490.319 369.901,488.653 370,486.5C 370.5,421.168 370.667,355.834 370.5,290.5C 370.5,290.167 370.5,289.833 370.5,289.5 Z"/></g>
<g><path style="opacity:0.971" fill="#000000" d="M 281.5,511.5 C 261.5,511.5 241.5,511.5 221.5,511.5C 219.045,509.86 217.545,507.527 217,504.5C 216.333,469.167 216.333,433.833 217,398.5C 217.833,395 220,392.833 223.5,392C 229.825,391.5 236.158,391.334 242.5,391.5C 242.334,381.828 242.5,372.161 243,362.5C 246.51,357.553 251.01,356.387 256.5,359C 258.487,360.319 259.654,362.152 260,364.5C 260.5,373.494 260.666,382.494 260.5,391.5C 266.842,391.334 273.175,391.5 279.5,392C 282.057,392.685 283.891,394.185 285,396.5C 285.667,433.5 285.667,470.5 285,507.5C 283.624,508.705 282.458,510.038 281.5,511.5 Z"/></g>
<g><path style="opacity:1" fill="#4d332d" d="M 234.5,409.5 C 245.833,409.5 257.167,409.5 268.5,409.5C 268.5,437.833 268.5,466.167 268.5,494.5C 257.167,494.5 245.833,494.5 234.5,494.5C 234.5,466.167 234.5,437.833 234.5,409.5 Z"/></g>
</svg>
