<?xml version="1.0" standalone="no"?>
<!DOCTYPE svg PUBLIC "-//W3C//DTD SVG 20010904//EN"
 "http://www.w3.org/TR/2001/REC-SVG-20010904/DTD/svg10.dtd">
<svg version="1.0" xmlns="http://www.w3.org/2000/svg"
 width="512.000000pt" height="512.000000pt" viewBox="0 0 512.000000 512.000000"
 preserveAspectRatio="xMidYMid meet">

<g transform="translate(0.000000,512.000000) scale(0.100000,-0.100000)"
fill="#000000" stroke="none">
<path d="M2499 4369 c-109 -12 -214 -76 -286 -172 -129 -176 -104 -426 57
-570 168 -151 412 -151 580 0 163 147 186 399 52 575 -98 128 -237 186 -403
167z"/>
<path d="M3900 3924 c-374 -68 -792 -320 -1208 -730 l-135 -134 -66 55 c-402
337 -799 591 -1117 715 -163 64 -280 91 -419 96 l-120 6 35 -23 c272 -174 418
-302 600 -524 440 -538 818 -1416 1045 -2430 47 -211 43 -211 70 5 100 791
408 1608 812 2151 238 322 533 599 822 775 64 39 64 39 35 45 -53 12 -278 7
-354 -7z"/>
<path d="M197 3510 c-74 -9 -171 -30 -186 -39 -8 -6 -3 -32 20 -97 117 -333
324 -584 567 -685 42 -17 185 -70 317 -116 295 -104 383 -139 555 -217 236
-108 436 -248 540 -378 25 -31 46 -55 48 -53 2 2 -6 24 -17 50 -88 199 -402
463 -856 720 -185 105 -287 170 -419 268 -131 98 -272 217 -257 217 18 0 178
-60 297 -110 150 -64 331 -159 459 -239 54 -34 99 -60 100 -59 2 2 -14 42 -35
90 -106 246 -253 427 -435 537 -73 44 -230 97 -328 110 -87 12 -280 12 -370 1z"/>
<path d="M4540 3508 c-87 -12 -246 -67 -315 -109 -182 -110 -329 -291 -435
-537 -21 -48 -37 -88 -35 -90 1 -1 46 25 100 59 128 80 309 175 459 239 119
50 279 110 297 110 14 0 -119 -114 -237 -202 -133 -101 -233 -165 -439 -283
-474 -272 -766 -517 -856 -720 -11 -26 -19 -48 -17 -50 2 -2 23 22 48 53 104
130 304 270 540 378 172 78 260 113 555 217 132 46 275 99 317 116 199 83 369
259 493 510 44 88 109 261 101 268 -9 10 -116 33 -196 43 -100 12 -288 11
-380 -2z"/>
<path d="M965 2386 c-179 -35 -299 -116 -403 -271 -58 -88 -108 -193 -125
-266 -7 -26 -5 -27 61 -40 97 -20 301 -17 382 5 186 50 337 191 427 396 17 41
31 76 29 78 -2 2 -36 -17 -75 -42 -39 -25 -112 -66 -163 -92 -102 -51 -317
-138 -325 -131 -15 16 327 258 450 318 60 30 65 34 45 42 -42 15 -229 17 -303
3z"/>
<path d="M3920 2395 c-8 -2 -33 -7 -55 -10 l-39 -7 80 -41 c44 -23 124 -72
179 -109 108 -72 269 -198 262 -204 -16 -16 -368 143 -488 221 -39 25 -73 44
-75 42 -3 -2 11 -38 30 -80 95 -209 240 -343 426 -393 81 -22 285 -25 383 -5
37 7 67 15 67 17 0 13 -47 137 -68 179 -99 199 -239 324 -417 370 -56 15 -252
29 -285 20z"/>
<path d="M1416 1780 c-248 -39 -486 -173 -486 -273 0 -46 39 -78 120 -99 19
-5 181 -13 360 -17 l325 -7 110 -37 c214 -73 421 -190 544 -307 56 -54 63 -57
57 -33 -4 16 -35 87 -71 158 -151 308 -358 505 -625 595 -75 25 -238 35 -334
20z"/>
<path d="M3460 1784 c-278 -54 -539 -271 -698 -580 -46 -91 -92 -198 -92 -217
0 -4 26 18 57 48 118 117 332 238 552 313 l106 36 325 7 c357 8 405 15 458 62
89 81 -92 236 -353 302 -97 25 -293 41 -355 29z"/>
</g>
</svg>
